<?xml version="1.0" encoding="UTF-8"?>
 <svg xmlns="http://www.w3.org/2000/svg" width="615" height="188" viewBox="0 0 615 188" role="img" aria-labelledby="title desc">
   <title id="title">Language distribution donut chart</title>
   <desc id="desc">Language mix across current public repositories: Kotlin 44.4%, HTML 33.7%, JavaScript 17.9%, CSS 3.2%, Python 0.5%, PowerShell 0.3%.</desc>
   <style>
     .label { fill: #24292f; font: 600 14px -apple-system, BlinkMacSystemFont, "Segoe UI", sans-serif; }
     .percent { fill: #57606a; font: 600 13px -apple-system, BlinkMacSystemFont, "Segoe UI", sans-serif; }
     .center-value { fill: #24292f; font: 700 28px -apple-system, BlinkMacSystemFont, "Segoe UI", sans-serif; text-anchor: middle; }
     .center-label { fill: #24292f; font: 600 13px -apple-system, BlinkMacSystemFont, "Segoe UI", sans-serif; text-anchor: middle; }
     .bar-track { fill: #d0d7de; opacity: 0.34; }
     .donut-track { fill: #d0d7de; opacity: 0.20; }
     .segment { stroke: none; }
     @media (prefers-color-scheme: dark) {
       .label, .center-value, .center-label { fill: #f0f6fc; }
       .percent { fill: #8b949e; }
       .bar-track { fill: #30363d; }
       .donut-track { fill: #30363d; }
     }
   </style>

   <g>
     <circle cx="26.0" cy="30.5" r="5" fill="#7F52FF"/>
    <text class="label" x="44.0" y="34.5">Kotlin</text>
    <text class="percent" x="183.0" y="34.5" text-anchor="end">44.4%</text>
    <rect class="bar-track" x="44.0" y="43.5" width="139.0" height="3" rx="1.5"/>
    <rect x="44.0" y="43.5" width="61.72" height="3" rx="1.5" fill="#7F52FF"/>
    <circle cx="26.0" cy="62.5" r="5" fill="#E34F26"/>
    <text class="label" x="44.0" y="66.5">HTML</text>
    <text class="percent" x="183.0" y="66.5" text-anchor="end">33.7%</text>
    <rect class="bar-track" x="44.0" y="75.5" width="139.0" height="3" rx="1.5"/>
    <rect x="44.0" y="75.5" width="46.84" height="3" rx="1.5" fill="#E34F26"/>
    <circle cx="26.0" cy="94.5" r="5" fill="#F7DF1E"/>
    <text class="label" x="44.0" y="98.5">JavaScript</text>
    <text class="percent" x="183.0" y="98.5" text-anchor="end">17.9%</text>
    <rect class="bar-track" x="44.0" y="107.5" width="139.0" height="3" rx="1.5"/>
    <rect x="44.0" y="107.5" width="24.88" height="3" rx="1.5" fill="#F7DF1E"/>
    <circle cx="26.0" cy="126.5" r="5" fill="#00B8D9"/>
    <text class="label" x="44.0" y="130.5">CSS</text>
    <text class="percent" x="183.0" y="130.5" text-anchor="end">3.2%</text>
    <rect class="bar-track" x="44.0" y="139.5" width="139.0" height="3" rx="1.5"/>
    <rect x="44.0" y="139.5" width="4.45" height="3" rx="1.5" fill="#00B8D9"/>
    <circle cx="26.0" cy="158.5" r="5" fill="#22C55E"/>
    <text class="label" x="44.0" y="162.5">Python</text>
    <text class="percent" x="183.0" y="162.5" text-anchor="end">0.5%</text>
    <rect class="bar-track" x="44.0" y="171.5" width="139.0" height="3" rx="1.5"/>
    <rect x="44.0" y="171.5" width="4.00" height="3" rx="1.5" fill="#22C55E"/>
    <circle cx="209.0" cy="30.5" r="5" fill="#EC4899"/>
    <text class="label" x="227.0" y="34.5">PowerShell</text>
    <text class="percent" x="366.0" y="34.5" text-anchor="end">0.3%</text>
    <rect class="bar-track" x="227.0" y="43.5" width="139.0" height="3" rx="1.5"/>
    <rect x="227.0" y="43.5" width="4.00" height="3" rx="1.5" fill="#EC4899"/>
   </g>

   <g>
     <path class="donut-track" d="M 508.00 11.00 A 83.00 83.00 0 1 1 508.00 177.00 A 83.00 83.00 0 1 1 508.00 11.00 L 508.00 33.00 A 61.00 61.00 0 1 0 508.00 155.00 A 61.00 61.00 0 1 0 508.00 33.00 Z" />
     <path class="segment" d="M 508.00 11.00 A 83.00 83.00 0 0 1 536.61 171.91 Q 525.59 164.24 529.02 151.26 A 61.00 61.00 0 0 0 508.00 33.00 Q 515.70 22.00 508.00 11.00 Z" fill="#7F52FF" />
    <path class="segment" d="M 536.61 171.91 A 83.00 83.00 0 0 1 426.57 77.94 Q 438.85 72.51 448.15 82.19 A 61.00 61.00 0 0 0 529.02 151.26 Q 525.59 164.24 536.61 171.91 Z" fill="#E34F26" />
    <path class="segment" d="M 426.57 77.94 A 83.00 83.00 0 0 1 487.36 13.61 Q 497.55 22.35 492.83 34.92 A 61.00 61.00 0 0 0 448.15 82.19 Q 438.85 72.51 426.57 77.94 Z" fill="#F7DF1E" />
    <path class="segment" d="M 487.36 13.61 A 83.00 83.00 0 0 1 503.83 11.10 Q 512.07 21.70 504.94 33.08 A 61.00 61.00 0 0 0 492.83 34.92 Q 497.55 22.35 487.36 13.61 Z" fill="#00B8D9" />
    <path class="segment" d="M 503.83 11.10 A 83.00 83.00 0 0 1 506.44 11.01 Q 514.34 21.87 506.85 33.01 A 61.00 61.00 0 0 0 504.94 33.08 Q 512.07 21.70 503.83 11.10 Z" fill="#22C55E" />
    <path class="segment" d="M 506.44 11.01 A 83.00 83.00 0 0 1 508.00 11.00 Q 515.70 22.00 508.00 33.00 A 61.00 61.00 0 0 0 506.85 33.01 Q 514.34 21.87 506.44 11.01 Z" fill="#EC4899" />
   </g>
   <text class="center-value" x="508.0" y="92.0">44.4%</text>
  <text class="center-label" x="508.0" y="113.0">Kotlin</text>
</svg>